<?xml version="1.0" standalone="no"?>
<!DOCTYPE svg PUBLIC "-//W3C//DTD SVG 20010904//EN"
 "http://www.w3.org/TR/2001/REC-SVG-20010904/DTD/svg10.dtd">
<svg version="1.0" xmlns="http://www.w3.org/2000/svg"
 width="400.000000pt" height="400.000000pt" viewBox="0 0 400.000000 400.000000"
 preserveAspectRatio="xMidYMid meet">

<g transform="translate(0.000000,400.000000) scale(0.100000,-0.100000)"
fill="#000000" stroke="none">
<path d="M0 2000 l0 -2000 2000 0 2000 0 0 2000 0 2000 -2000 0 -2000 0 0
-2000z m1908 1575 c-87 -17 -89 -19 -75 -55 10 -27 9 -33 -14 -56 -21 -20 -39
-27 -88 -31 -60 -6 -61 -5 -61 19 0 41 89 109 166 127 21 5 62 9 89 9 l50 0
-67 -13z m42 -65 c23 -23 24 -33 10 -61 -7 -12 -21 -19 -40 -19 -29 0 -29 1
-27 50 2 56 21 66 57 30z m-319 -120 c5 -14 23 -33 40 -43 l31 -17 -6 23 c-5
21 -1 25 33 35 50 15 51 15 51 -6 0 -33 -61 -72 -112 -72 -70 0 -98 55 -65
127 l12 27 3 -24 c2 -14 7 -36 13 -50z m-19 -121 c-4 -4 -17 -10 -29 -14 -20
-5 -23 -3 -23 18 0 24 2 25 30 14 16 -6 26 -14 22 -18z m208 -24 c0 -17 -28
-19 -81 -8 l-34 7 35 7 c61 11 80 10 80 -6z m310 -98 c0 -23 -8 -41 -28 -60
-15 -15 -32 -27 -37 -27 -5 0 1 7 13 16 27 19 28 30 3 37 -15 4 -19 12 -17 33
2 16 4 30 5 32 0 1 15 2 31 2 27 0 30 -3 30 -33z m-330 -7 c0 -5 7 -10 15 -10
8 0 15 -9 15 -20 0 -17 -6 -20 -37 -19 -61 2 -88 13 -91 37 -3 20 1 22 47 22
28 0 51 -4 51 -10z m188 -146 c11 -3 10 -7 -2 -20 -9 -8 -16 -20 -16 -25 0 -5
-16 -17 -35 -26 -28 -14 -32 -19 -20 -26 8 -4 13 -12 10 -17 -4 -6 7 -7 25 -3
31 6 31 5 19 -16 -10 -15 -24 -21 -50 -21 -33 0 -42 7 -88 62 -28 35 -51 67
-51 72 0 6 5 5 12 -2 15 -15 54 -16 63 -2 3 6 15 10 26 10 13 0 18 4 13 12 -5
8 -2 9 9 5 9 -3 19 -2 22 2 5 8 27 6 63 -5z m248 -62 c6 -13 38 -36 72 -52 33
-15 63 -33 67 -39 3 -7 -8 -3 -27 9 -47 29 -92 26 -117 -6 -12 -15 -21 -23
-21 -19 0 5 7 16 16 26 21 23 10 73 -19 95 -21 15 -21 15 -2 12 11 -2 25 -14
31 -26z m-474 -32 c6 0 32 -22 58 -50 37 -39 54 -50 79 -50 17 0 31 -4 31 -10
0 -5 9 -10 20 -10 11 0 20 -5 20 -11 0 -7 -17 -9 -52 -4 -49 6 -58 11 -120 76
-38 38 -68 75 -68 81 0 7 5 5 11 -4 5 -10 15 -18 21 -18z m-117 -47 c10 -26
37 -65 63 -89 45 -43 45 -44 34 -83 -7 -21 -12 -49 -12 -61 0 -23 0 -23 -21
-4 -37 33 -80 102 -99 162 -15 42 -16 52 -5 38 8 -11 15 -24 15 -30 0 -5 2 -7
5 -5 2 3 -2 27 -10 54 -18 59 -18 65 -1 65 7 0 21 -21 31 -47z m835 -108 c7
-9 8 -15 2 -15 -5 0 -12 7 -16 15 -3 8 -4 15 -2 15 2 0 9 -7 16 -15z m-355
-58 c-19 -12 -27 -20 -99 -99 -25 -28 -42 -38 -65 -38 -17 0 -31 3 -31 6 0 11
72 105 77 100 3 -2 0 -13 -6 -24 -21 -39 -11 -35 30 12 22 25 45 44 50 41 5
-4 17 -1 26 4 25 15 42 12 18 -2z m415 -7 c0 -5 -4 -10 -10 -10 -5 0 -10 5
-10 10 0 6 5 10 10 10 6 0 10 -4 10 -10z m-1319 -97 c-20 -21 -50 -57 -66 -80
-28 -43 -44 -58 -26 -25 25 46 103 142 116 142 8 0 -1 -15 -24 -37z m266 -36
c10 -7 7 -14 -12 -29 -14 -11 -34 -36 -44 -56 -26 -54 -53 -160 -46 -182 4
-11 2 -20 -2 -20 -16 0 -33 24 -33 46 0 28 44 152 77 217 23 47 29 49 60 24z
m1191 -22 c-3 -3 -9 2 -12 12 -6 14 -5 15 5 6 7 -7 10 -15 7 -18z m-1189 -37
c-9 -16 -14 -19 -17 -9 -2 7 2 17 9 22 20 13 21 11 8 -13z m1211 -3 c0 -8 -2
-15 -4 -15 -2 0 -6 7 -10 15 -3 8 -1 15 4 15 6 0 10 -7 10 -15z m7 -47 c-3 -8
-6 -5 -6 6 -1 11 2 17 5 13 3 -3 4 -12 1 -19z m-1392 -5 c-3 -10 -11 -39 -17
-66 -8 -41 -7 -53 11 -89 11 -23 19 -43 17 -45 -1 -2 -22 10 -44 27 -33 24
-42 37 -42 59 0 39 16 81 42 109 26 26 43 29 33 5z m1182 -24 c7 -19 12 -52
12 -74 1 -57 19 -115 47 -152 l24 -32 -29 -16 c-17 -8 -34 -15 -39 -15 -14 0
-38 67 -46 125 -6 48 -6 49 7 20 l14 -30 7 37 c8 42 -5 108 -27 142 -9 13 -13
27 -10 30 13 13 28 -1 40 -35z m-1393 -11 c-4 -18 -11 -51 -15 -73 l-6 -40 -2
41 c-1 39 15 104 26 104 2 0 1 -15 -3 -32z m941 11 c11 -17 0 -20 -21 -4 -17
13 -17 14 -2 15 9 0 20 -5 23 -11z m673 -30 c-3 -8 -7 -3 -11 10 -4 17 -3 21
5 13 5 -5 8 -16 6 -23z m-688 -11 c0 -7 -4 -7 -13 1 -8 6 -17 8 -20 4 -4 -3
-7 1 -7 11 0 14 4 15 20 6 11 -6 20 -16 20 -22z m-410 -44 c0 -10 -20 -3 -41
16 l-24 20 33 -16 c17 -8 32 -17 32 -20z m5 26 c3 -6 -1 -7 -9 -4 -18 7 -21
14 -7 14 6 0 13 -4 16 -10z m423 -3 c6 10 16 14 26 10 14 -5 14 -10 4 -26 -7
-11 -10 -22 -8 -24 72 -54 90 -72 89 -85 0 -13 -3 -12 -11 5 -6 12 -44 43 -84
69 -41 26 -74 52 -74 57 0 5 11 2 25 -7 22 -15 25 -15 33 1z m-321 -49 c66
-38 72 -43 66 -67 -3 -14 -7 -28 -9 -29 -1 -2 -41 17 -89 43 -96 53 -108 71
-19 31 31 -15 59 -24 62 -21 3 3 0 5 -7 5 -7 0 -10 4 -6 9 3 6 -15 22 -40 36
-43 26 -53 35 -38 35 4 0 40 -19 80 -42z m281 -92 c78 -59 140 -111 137 -116
-8 -13 -17 -8 -134 74 -69 48 -97 63 -103 53 -13 -20 -11 -23 72 -77 43 -28
85 -59 92 -67 7 -9 -14 1 -46 22 -32 20 -55 32 -52 26 10 -16 4 -14 -48 15
-26 15 -50 23 -54 19 -4 -4 -2 -9 3 -11 28 -11 340 -213 343 -223 4 -11 -36
10 -151 82 -61 38 -124 51 -154 31 -21 -13 -24 -11 -67 69 -43 78 -45 84 -34
125 6 26 16 42 26 42 13 0 13 -2 -1 -18 -10 -10 -17 -25 -17 -33 0 -8 8 -2 18
13 12 20 22 26 37 22 20 -5 20 -5 0 11 -11 9 -26 20 -34 24 -8 5 -11 15 -7 26
4 12 10 14 19 7 6 -5 76 -57 155 -116z m11 56 c36 -27 131 -93 211 -147 171
-116 155 -104 148 -110 -3 -3 -22 8 -44 23 -163 117 -341 232 -329 211 6 -8 2
-8 -11 0 -41 23 -67 49 -60 60 10 16 12 15 85 -37z m741 -42 c17 0 52 -71 46
-94 -4 -15 0 -28 10 -36 8 -7 13 -18 10 -25 -2 -6 8 -30 24 -53 36 -54 43
-105 25 -176 -8 -31 -15 -59 -15 -61 0 -3 -5 -5 -11 -5 -6 0 -9 6 -6 13 2 6
-2 25 -10 41 -8 15 -10 25 -4 22 7 -5 11 8 11 36 0 53 -27 99 -79 135 -22 16
-40 31 -41 36 0 11 48 9 71 -3 46 -25 8 65 -47 110 -23 19 -41 40 -40 45 2 6
-5 21 -15 34 -22 28 -24 48 -6 54 6 2 25 -13 40 -35 16 -21 32 -38 37 -38z
m-1154 55 c17 -13 16 -13 -12 -3 -22 8 -49 8 -92 1 -34 -5 -62 -6 -62 -2 0 21
138 25 166 4z m109 -3 c-3 -3 -11 0 -18 7 -9 10 -8 11 6 5 10 -3 15 -9 12 -12z
m-490 -22 c18 -20 17 -20 -19 -20 -20 0 -52 -7 -71 -14 -30 -13 -35 -13 -35
-1 0 16 13 25 55 41 44 17 50 16 70 -6z m465 -26 c0 -2 -9 0 -20 6 -11 6 -20
13 -20 16 0 2 9 0 20 -6 11 -6 20 -13 20 -16z m550 -69 c70 -46 99 -74 38 -37
-18 10 -52 30 -75 42 -24 13 -43 27 -43 32 0 13 6 10 80 -37z m-1020 30 c0 -2
-18 -14 -39 -25 -45 -22 -96 -80 -113 -127 -7 -18 -15 -33 -18 -33 -8 0 -30
70 -30 96 0 12 -3 15 -10 8 -8 -8 -7 -19 0 -39 6 -15 9 -30 6 -32 -2 -2 -9 11
-15 30 -12 37 -6 70 13 64 6 -2 24 5 40 16 16 11 45 26 65 33 35 13 101 19
101 9z m599 -105 c0 -9 -4 -8 -9 5 -5 11 -9 27 -9 35 0 9 4 8 9 -5 5 -11 9
-27 9 -35z m576 18 c32 -21 45 -38 28 -38 -11 1 -80 59 -70 60 4 0 23 -10 42
-22z m-1027 -34 l53 -7 -21 -22 c-12 -12 -30 -44 -41 -71 l-20 -49 4 58 c2 31
1 57 -3 57 -4 0 -15 -9 -25 -21 -20 -22 -26 -77 -11 -119 7 -22 4 -21 -23 10
-29 33 -91 149 -91 169 0 14 39 18 85 9 22 -5 64 -11 93 -14z m1000 1 c20 -14
31 -25 23 -25 -17 0 -71 32 -71 42 0 13 9 10 48 -17z m-1214 -45 c-12 -34 -12
-45 0 -73 11 -28 11 -36 0 -52 -19 -26 -27 -14 -31 48 -3 40 1 60 16 85 27 43
32 40 15 -8z m686 10 c12 -23 12 -24 -3 -11 -10 7 -17 20 -17 29 0 18 3 16 20
-18z m-311 -25 c-29 -66 -21 -89 14 -37 34 52 52 55 25 5 -13 -27 -18 -53 -16
-90 3 -47 1 -52 -20 -56 -43 -8 -68 85 -40 150 10 24 46 73 54 73 2 0 -6 -20
-17 -45z m895 -22 c-10 -7 -21 -13 -25 -13 -11 0 2 43 20 64 15 18 16 17 19
-10 3 -18 -2 -33 -14 -41z m-1390 5 c-3 -5 0 -24 5 -43 6 -19 16 -52 22 -72 6
-21 23 -50 37 -65 14 -16 21 -28 14 -28 -21 0 -61 65 -68 110 -4 25 -13 52
-21 61 -9 11 -12 26 -7 44 5 19 9 23 15 14 4 -7 5 -17 3 -21z m1006 6 c0 -2
-9 0 -20 6 -11 6 -20 13 -20 16 0 2 9 0 20 -6 11 -6 20 -13 20 -16z m80 -50
c0 -2 -9 0 -20 6 -11 6 -20 13 -20 16 0 2 9 0 20 -6 11 -6 20 -13 20 -16z
m512 -118 c96 -69 181 -126 189 -126 8 0 21 -6 29 -12 12 -11 12 -10 1 5 -8 9
-12 20 -9 22 8 8 49 -26 43 -36 -3 -5 0 -6 8 -4 18 8 51 -30 43 -50 -5 -13
-15 -10 -63 21 -155 100 -186 119 -192 120 -20 3 -41 18 -41 30 0 8 -8 14 -18
14 -9 0 -48 20 -85 46 -40 26 -75 43 -85 40 -9 -3 -26 1 -36 9 -19 14 -19 15
-1 35 10 11 24 19 31 16 6 -2 90 -61 186 -130z m-1200 80 c-3 -23 -7 -33 -12
-26 -4 7 -3 26 2 42 13 37 16 33 10 -16z m589 18 c14 -12 16 -22 9 -40 -5 -13
-7 -31 -3 -41 4 -11 3 -14 -6 -9 -8 5 -9 20 -5 43 5 29 3 39 -11 50 -11 7 -15
13 -10 13 5 0 16 -7 26 -16z m189 -42 c0 -9 -10 -6 -29 10 -39 30 -39 42 -1
20 16 -9 30 -23 30 -30z m-212 25 c13 -15 -1 -42 -17 -33 -13 8 -15 46 -2 46
5 0 13 -6 19 -13z m315 -11 c30 -7 35 -27 12 -46 -16 -13 -40 -8 -74 19 -31
24 -23 55 11 42 13 -5 35 -12 51 -15z m197 -89 c0 -11 -4 -9 -72 37 -32 21
-55 42 -53 47 6 9 125 -70 125 -84z m-416 58 c13 -14 13 -19 -5 -50 -24 -40
-29 -44 -22 -15 3 11 1 20 -4 20 -6 0 -34 -46 -62 -102 -29 -57 -50 -92 -46
-78 7 25 115 240 121 240 1 0 9 -7 18 -15z m81 -26 c0 -8 -10 -15 -22 -17 -13
-2 -23 -8 -23 -14 0 -6 -3 -9 -6 -6 -3 4 2 18 12 33 17 27 39 29 39 4z m285
-64 c55 -35 108 -74 117 -85 10 -11 53 -41 96 -67 43 -26 73 -49 68 -51 -15
-5 -402 249 -395 259 8 13 5 14 114 -56z m345 22 c30 -53 32 -66 5 -42 -11 10
-20 15 -20 11 0 -4 -10 -1 -22 6 -13 6 -31 12 -40 13 -32 3 -31 14 3 34 19 12
37 21 41 21 4 0 19 -20 33 -43z m-840 -74 c-43 -88 -62 -153 -45 -153 5 0 12
9 15 21 4 11 8 19 10 17 2 -2 -4 -27 -13 -55 -16 -47 -19 -50 -35 -38 -18 13
-18 16 -2 71 20 68 96 224 110 224 1 0 -17 -39 -40 -87z m443 31 c210 -136
190 -118 168 -146 -16 -21 -28 -24 -20 -5 3 8 -11 26 -33 42 -21 15 -45 36
-53 45 -8 10 -48 40 -89 69 -99 68 -83 65 27 -5z m-383 -56 c-41 -91 -69 -181
-53 -176 6 2 18 26 25 52 8 27 16 46 19 44 4 -5 -34 -138 -41 -146 -2 -2 -12
1 -23 7 -20 11 -20 12 7 88 27 75 87 203 95 203 3 0 -10 -33 -29 -72z m18 -33
c-3 -9 -8 -14 -10 -11 -3 3 -2 9 2 15 9 16 15 13 8 -4z m-580 -65 c3 -25 4
-39 1 -32 -3 6 -12 12 -20 12 -17 0 -18 11 -2 45 14 31 14 31 21 -25z m573
-31 c-9 -29 -16 -65 -16 -80 0 -27 -14 -47 -23 -32 -5 9 44 175 50 169 2 -2
-3 -28 -11 -57z m788 -5 c11 -7 17 -16 15 -19 -4 -4 -93 54 -108 71 -8 9 69
-33 93 -52z m-1365 -45 c-15 -9 -59 -12 -59 -4 0 10 65 32 69 22 2 -5 -3 -13
-10 -18z m1326 -9 c3 -5 -9 -3 -27 4 -18 8 -34 19 -36 26 -5 13 53 -14 63 -30z
m57 -12 c-18 -18 -24 -20 -34 -10 -11 11 -10 12 4 7 11 -4 20 1 28 15 6 12 14
19 18 16 3 -4 -4 -16 -16 -28z m-363 -37 c-12 -21 -32 -52 -46 -67 -22 -27
-23 -27 -12 -4 16 33 68 110 75 110 3 0 -5 -17 -17 -39z m451 -9 c-5 -2 -19 2
-32 8 -18 9 -17 6 7 -15 21 -19 24 -24 8 -16 -28 14 -36 14 -27 -1 4 -7 3 -8
-5 -4 -6 4 -9 12 -5 17 3 6 0 10 -7 8 -38 -5 -42 1 -20 25 l23 25 34 -22 c18
-12 29 -23 24 -25z m390 -177 c101 -66 136 -97 58 -53 -24 14 -76 42 -115 64
-40 21 -73 42 -73 46 0 19 36 3 130 -57z m-79 -46 c16 -15 32 -24 36 -20 4 3
1 -3 -7 -13 -10 -13 -10 -17 -2 -12 6 4 12 3 12 -2 0 -10 163 -116 200 -130
14 -5 19 -11 12 -16 -6 -3 -88 40 -181 96 -134 80 -171 108 -171 124 0 11 3
24 6 27 9 8 58 -20 95 -54z m-1471 -69 l-35 -7 35 -5 c29 -4 26 -5 -17 -6 -41
-2 -53 1 -53 13 0 12 12 15 53 14 48 -2 49 -2 17 -9z m-455 -221 c27 -24 35
-39 33 -58 -3 -22 -9 -26 -40 -29 -29 -2 -39 1 -48 18 -9 17 -19 21 -53 18
-34 -2 -42 -7 -42 -22 0 -17 11 -22 63 -31 89 -17 116 -39 120 -102 3 -47 1
-52 -32 -76 -30 -24 -44 -27 -110 -27 -66 0 -78 3 -105 26 -22 18 -31 35 -31
55 0 27 3 29 40 29 29 0 42 -5 50 -20 13 -24 71 -28 90 -5 20 24 -4 42 -65 50
-79 9 -115 42 -115 103 0 39 5 49 33 73 28 25 40 28 104 29 67 0 75 -2 108
-31z m276 -25 l32 -57 31 56 31 57 73 0 72 0 0 -36 c0 -27 -5 -37 -20 -41 -18
-5 -20 -14 -20 -95 0 -81 2 -90 20 -95 15 -4 20 -14 20 -39 l0 -34 -85 0 -85
0 0 34 c0 28 4 35 22 38 18 3 21 10 23 56 1 29 -2 55 -6 57 -4 3 -21 -17 -38
-45 -17 -27 -37 -50 -44 -50 -7 0 -26 23 -42 50 -16 28 -33 50 -37 50 -4 0 -8
-25 -8 -55 0 -50 2 -56 25 -65 19 -7 25 -17 25 -40 l0 -30 -85 0 c-61 0 -85 4
-86 13 0 6 -2 20 -4 31 -2 11 3 20 16 23 17 5 19 15 19 99 0 58 -4 94 -10 94
-14 0 -28 40 -22 62 4 15 16 18 77 18 l74 0 32 -56z m544 25 l35 -31 0 -112 0
-111 -34 -27 c-31 -25 -43 -28 -106 -28 -63 0 -75 3 -106 28 l-34 27 0 111 0
111 37 32 c33 28 43 31 104 31 62 0 72 -3 104 -31z m255 -3 c0 -19 -4 -38 -10
-41 -5 -3 -10 -22 -10 -41 l0 -36 41 33 c28 22 37 35 30 42 -6 6 -11 26 -11
44 l0 33 75 0 75 0 0 -34 c0 -28 -5 -36 -27 -45 -16 -5 -39 -19 -51 -30 l-24
-21 34 -66 c18 -37 41 -69 51 -72 12 -3 17 -14 17 -38 l0 -34 -75 0 -75 0 0
34 c0 19 4 38 10 41 6 4 4 18 -6 38 -22 42 -19 40 -43 27 -22 -11 -31 -70 -11
-70 6 0 10 -16 10 -35 l0 -35 -80 0 -80 0 0 34 c0 25 5 35 20 39 18 5 20 14
20 95 0 81 -2 90 -20 95 -15 4 -20 14 -20 41 l0 36 80 0 80 0 0 -34z m538 -23
c-3 -55 -4 -58 -31 -61 -22 -3 -30 1 -34 17 -4 17 -13 21 -49 21 -24 0 -44 -4
-45 -10 -6 -57 -7 -56 54 -59 23 -1 28 -5 25 -23 -2 -19 -10 -24 -40 -26 -36
-3 -38 -5 -38 -38 0 -33 1 -34 41 -34 32 0 42 4 46 20 4 15 14 20 39 20 l34 0
0 -55 0 -55 -150 0 -150 0 0 30 c0 19 7 33 20 40 18 9 20 21 20 100 0 80 -2
89 -20 95 -20 6 -29 53 -13 68 3 4 71 7 150 7 l144 0 -3 -57z m-1443 -437 c12
-38 12 -46 1 -46 -8 0 -17 8 -21 18 -6 16 -7 16 -19 0 -20 -27 -28 -21 -21 15
20 91 36 95 60 13z m104 32 l21 -33 0 33 c0 20 4 31 10 27 12 -8 13 -105 1
-105 -5 0 -16 10 -24 23 l-16 22 0 -23 c-1 -44 -26 -17 -27 29 -2 69 5 74 35
27z m155 19 c21 -16 24 -60 6 -82 -7 -8 -23 -15 -36 -15 -22 0 -24 4 -24 48 0
64 15 78 54 49z m204 1 c11 -15 13 -98 2 -98 -4 0 -11 10 -15 23 l-8 22 -4
-22 c-2 -13 -9 -23 -14 -23 -10 0 -13 93 -2 103 10 11 30 8 41 -5z m122 -2 c0
-8 -6 -17 -12 -20 -10 -5 -10 -7 0 -12 10 -5 10 -9 0 -22 -10 -12 -10 -16 0
-19 21 -8 13 -23 -13 -23 -23 0 -25 3 -25 48 0 27 3 52 7 55 12 13 43 7 43 -7z
m90 -37 c0 -21 5 -39 10 -39 6 0 10 -5 10 -11 0 -6 -10 -9 -22 -7 -19 2 -24
10 -26 42 -2 21 -1 45 2 53 10 26 26 3 26 -38z m144 29 c31 -44 8 -96 -36 -85
-33 9 -45 50 -23 83 19 30 39 31 59 2z m133 -32 c16 -54 12 -66 -13 -41 -16
15 -18 15 -26 1 -11 -19 -29 -22 -23 -3 2 6 9 31 15 55 6 24 16 42 22 40 6 -2
18 -26 25 -52z m117 44 c21 -8 26 -16 26 -43 0 -39 -15 -57 -47 -57 -21 0 -23
4 -23 55 0 58 3 61 44 45z"/>
<path d="M2900 1656 c0 -2 8 -10 18 -17 15 -13 16 -12 3 4 -13 16 -21 21 -21
13z"/>
<path d="M1987 884 c-13 -13 -8 -161 6 -172 17 -14 65 -12 77 3 6 8 10 46 8
92 l-3 78 -40 3 c-23 2 -44 0 -48 -4z"/>
<path d="M1720 479 c0 -17 4 -28 10 -24 6 3 10 17 10 31 0 13 -4 24 -10 24 -5
0 -10 -14 -10 -31z"/>
<path d="M1925 500 c3 -5 8 -10 11 -10 2 0 4 5 4 10 0 6 -5 10 -11 10 -5 0 -7
-4 -4 -10z"/>
<path d="M2265 507 c-9 -21 -3 -49 12 -54 19 -7 27 37 9 55 -14 14 -16 14 -21
-1z"/>
<path d="M2532 485 c4 -33 22 -33 26 0 2 18 -1 25 -13 25 -12 0 -15 -7 -13
-25z"/>
</g>
</svg>
